<svg xmlns="http://www.w3.org/2000/svg" viewBox="0 0 59.9 59.9"><g id="Capa_2" data-name="Capa 2"><g id="Capa_1-2" data-name="Capa 1"><circle cx="29.95" cy="29.95" r="29.95" style="fill:#009eb1"/><g id="eVFocv"><path d="M29.92,41.81h-16a2.21,2.21,0,0,1-2.35-2.34,2.43,2.43,0,0,1,1.1-2.32c3.06-2.39,6.06-4.85,9.07-7.3a.73.73,0,0,1,.95-.07c2.26,1.17,4.53,2.31,6.79,3.49a1,1,0,0,0,1,0c2.28-1.19,4.57-2.34,6.84-3.53a.7.7,0,0,1,.9.09q4.88,4,9.77,7.88a.84.84,0,0,1,.4.81c0,.36,0,.73,0,1.09a2.12,2.12,0,0,1-2.19,2.19Z" style="fill:#fff"/><path d="M30,18.08H46a2.23,2.23,0,0,1,2.39,2.36A2,2,0,0,1,47,22.66c-5.56,2.77-11.08,5.62-16.6,8.46a.89.89,0,0,1-.94,0Q20.76,26.64,12,22.19a.69.69,0,0,1-.48-.77c0-.38,0-.76,0-1.14a2.13,2.13,0,0,1,2.2-2.19Z" style="fill:#fff"/><path d="M11.6,24.13l8.45,4.32L11.6,35.27Z" style="fill:#fff"/><path d="M48.3,24.12V35.28l-8.46-6.83Z" style="fill:#fff"/></g></g></g></svg>