<svg xmlns="http://www.w3.org/2000/svg" viewBox="0 0 59.9 59.9"><g id="Capa_2" data-name="Capa 2"><g id="Capa_1-2" data-name="Capa 1"><circle cx="29.95" cy="29.95" r="29.95" style="fill:#009eb1"/><g id="Apj4uL"><path d="M39.09,47.33a10.88,10.88,0,0,1-3.53-.67c-1.66-.6-3.33-1.2-5-1.89a23,23,0,0,1-5.66-3.59,46.05,46.05,0,0,1-7.2-7.37,24.86,24.86,0,0,1-4-7.52c-.39-1.18-.85-2.34-1.17-3.54A9.1,9.1,0,0,1,13.44,16a10.46,10.46,0,0,1,1.77-2.56,3.23,3.23,0,0,1,1.28-.83,10.4,10.4,0,0,1,3.36-.66.82.82,0,0,1,.73.34c.31.48.62,1,.9,1.46.83,1.45,1.63,2.92,2.46,4.38.25.43.56.82.82,1.25a1.49,1.49,0,0,1-.21,2.21c-.52.53-1.1,1-1.66,1.5s-1.17,1-1.76,1.53c-.08.07-.13.17-.2.24a1.08,1.08,0,0,0-.2,1.3c.31.61.64,1.2,1,1.79a25.54,25.54,0,0,0,4.2,5.65,24.3,24.3,0,0,0,4.6,3.62c.74.45,1.49.9,2.24,1.33a7.75,7.75,0,0,0,.94.39.88.88,0,0,0,.84-.13,8.16,8.16,0,0,0,1.57-1.59l1.71-2a5,5,0,0,1,.48-.42A1.34,1.34,0,0,1,40,34.67c.53.32,1,.7,1.56,1,1.66.93,3.33,1.84,5,2.78a6.59,6.59,0,0,1,.82.56.8.8,0,0,1,.31.67,9.74,9.74,0,0,1-.84,3.8,3.33,3.33,0,0,1-1.15,1.32,11.45,11.45,0,0,1-5.1,2.37C40.07,47.26,39.58,47.28,39.09,47.33Z" style="fill:#fff"/></g></g></g></svg>