<svg xmlns="http://www.w3.org/2000/svg" viewBox="0 0 59.9 59.9"><g id="Capa_2" data-name="Capa 2"><g id="Capa_1-2" data-name="Capa 1"><circle cx="29.95" cy="29.95" r="29.95" style="fill:#009eb1"/><path d="M13.46,47.24H13a.92.92,0,0,1-.38-1.1c.59-2.8,1.16-5.6,1.74-8.4a.92.92,0,0,0-.08-.63,16.7,16.7,0,0,1-1.62-5.4A17.48,17.48,0,0,1,32.8,12.26a16.94,16.94,0,0,1,8,3.52,17.1,17.1,0,0,1,6.5,16,16.29,16.29,0,0,1-4,9,17.18,17.18,0,0,1-13.14,6.17,16.62,16.62,0,0,1-7.58-1.65,1.05,1.05,0,0,0-.72-.08l-5.94,1.42A22.55,22.55,0,0,0,13.46,47.24ZM30.57,15.83a14.19,14.19,0,0,0-7.15,1.67A13.69,13.69,0,0,0,16.52,32a15.16,15.16,0,0,0,1.7,4.55.94.94,0,0,1,.09.68c-.34,1.59-.66,3.19-1,4.78-.08.38-.07.38.33.29,1.46-.35,2.92-.68,4.37-1.05a1.53,1.53,0,0,1,1.2.14,13.7,13.7,0,0,0,7.6,1.72,12.92,12.92,0,0,0,5.6-1.59,13.41,13.41,0,0,0,7.16-11.31,12.73,12.73,0,0,0-1.93-7.77A13.26,13.26,0,0,0,30.57,15.83Z" style="fill:#fff"/><path d="M34.8,38a9.84,9.84,0,0,1-5.11-1.42,20.9,20.9,0,0,1-7-6.53,9.13,9.13,0,0,1-1.49-3.84A4.61,4.61,0,0,1,22.72,22c.2-.2.41-.4.63-.59a1.24,1.24,0,0,1,2,.39c.51,1.07,1,2.16,1.45,3.26a1.24,1.24,0,0,1-.19,1.29l-.63.82a1.27,1.27,0,0,0,0,1.65,17.94,17.94,0,0,0,3.53,3.54,10.83,10.83,0,0,0,2,1.3A1.26,1.26,0,0,0,33,33.45c.25-.23.48-.48.72-.73a1.36,1.36,0,0,1,1.45-.38l3.16.91a1.27,1.27,0,0,1,.72,2.06,12.67,12.67,0,0,1-.83,1.1A4.2,4.2,0,0,1,34.8,38Z" style="fill:#fff"/></g></g></svg>