<svg width="113" height="109" viewBox="0 0 113 109" fill="none" xmlns="http://www.w3.org/2000/svg">
<path d="M56.5 104C84.7332 104 108 82.043 108 54.5C108 26.957 84.7332 5 56.5 5C28.2668 5 5 26.957 5 54.5C5 82.043 28.2668 104 56.5 104Z" fill="white" stroke="#009eb1" stroke-width="10"/>
<path d="M76.8219 38.8171C76.8219 49.2111 79.9443 56.901 56.9225 57.633C33.794 58.3391 37.032 49.2111 37.032 38.8171C37.093 33.7689 39.2227 28.9507 42.9527 25.4222C46.6827 21.8937 51.7076 19.9438 56.9225 20.0012C62.1383 19.9438 67.1641 21.8935 70.8956 25.4217C74.627 28.95 76.7586 33.7681 76.8219 38.8171V38.8171Z" fill="#4E4E4D"/>
<path d="M63.3896 64.0571H49.895V71.6007H63.3896V64.0571Z" fill="#EFC0A6"/>
<g style="mix-blend-mode:multiply">
<path d="M53.6668 69.844C55.776 69.7635 57.8272 69.1521 59.6179 68.07C60.9053 67.3 62.0163 66.2831 62.8826 65.0819C63.0427 64.858 63.2206 64.5996 63.3807 64.3241V64.0571H49.895V69.7492C51.1489 69.858 52.4087 69.8896 53.6668 69.844V69.844Z" fill="#DADADA"/>
</g>
<path d="M73.3438 43.5189C73.3438 31.463 65.8537 24.4619 56.6023 24.4103H56.4066C47.1463 24.4619 39.6562 31.4199 39.6562 43.5189C39.6562 59.2003 51.3272 68.3542 56.4867 68.3973C61.6817 68.3542 73.3438 59.2003 73.3438 43.5189Z" fill="#EFC0A6"/>
<path d="M71.6803 47.9969L70.7196 55.1099C74.5002 56.7202 75.0962 48.3241 75.0962 48.3241C74.2156 46.2488 71.6803 47.9969 71.6803 47.9969Z" fill="#EFC0A6"/>
<path d="M38.3397 48.3413C38.3397 48.3413 38.9268 56.7374 42.7074 55.1271L41.7467 47.9969C41.7467 47.9969 39.2114 46.2488 38.3397 48.3413Z" fill="#EFC0A6"/>
<path d="M49.8417 71.0323L33.6161 75.8892C31.9044 76.2532 30.3315 77.0723 29.0743 78.2544C27.8172 79.4364 26.9255 80.9345 26.4997 82.5802L24 93H89L86.5181 82.6663C86.0904 81.0215 85.1981 79.5244 83.9413 78.3427C82.6844 77.1609 81.1125 76.3412 79.4017 75.9753L63.1583 71.0323H49.8417Z" fill="#EFC0A6"/>
<path d="M72.5254 73.831L79.3839 75.8892C81.0947 76.2551 82.6666 77.0748 83.9235 78.2566C85.1804 79.4383 86.0726 80.9354 86.5003 82.5802L88.9822 92.9139H24L26.4908 82.5802C26.9166 80.9345 27.8083 79.4364 29.0654 78.2544C30.3226 77.0723 31.8955 76.2532 33.6072 75.8892L40.5102 73.8138C40.5102 73.8138 40.5102 88.5393 56.5222 88.9096C56.5044 88.9096 72.1962 90.4769 72.5254 73.831Z" fill="#009eb1"/>
<path d="M48.7119 28.6471C48.7119 28.6471 56.887 44.6987 72.9079 47.3596C73.2041 47.285 73.5143 47.278 73.8138 47.3393C74.1133 47.4006 74.3939 47.5284 74.6336 47.7127C74.6367 46.9609 74.7141 46.2112 74.8649 45.4737C75.0546 43.5621 75.12 41.6409 75.0606 39.7213C74.8649 35.0884 73.2281 29.2757 69.999 25.7536C68.8484 24.543 67.4565 23.5705 65.9071 22.8947C62.9966 21.5225 59.7846 20.8575 56.5489 20.9571C54.0671 21.0432 50.918 21.6632 49.5036 23.8764C49.1138 24.5287 48.8712 25.2536 48.792 26.0034C48.703 26.6234 48.4184 28.0787 48.7119 28.6471Z" fill="#442A19"/>
<path d="M49.895 30.6621C49.895 30.6621 41.9513 34.7612 39.8964 47.3596C39.8964 47.3596 38.1707 47.3596 38.3753 48.7977C38.3753 48.7977 34.9416 26.3134 49.5036 23.9194L49.895 30.6621Z" fill="#442A19"/>
<path d="M42.1025 55.3252C42.1025 55.3252 44.7089 61.4737 49.7171 65.323L49.8417 71.0323C49.8355 73.8975 48.7326 76.6588 46.746 78.7826C44.9135 80.8579 42.3427 82.2272 40.5814 84.3111C39.9138 84.995 39.5302 85.8932 39.5039 86.8337C39.4777 87.7743 39.8106 88.6912 40.439 89.4091C40.2522 89.1679 37.7704 89.4091 37.3078 89.3488C36.6577 89.2394 36.0222 89.0603 35.413 88.8149C34.6703 88.5451 33.9961 88.1241 33.436 87.5803C32.8758 87.0366 32.4428 86.3828 32.1661 85.6631C31.7672 84.4808 31.6576 83.225 31.8459 81.9946C32.5042 76.2508 39.5406 75.2175 41.0261 70.1281C41.5599 68.3111 41.0261 66.7525 40.8126 64.9613C40.8037 64.9441 39.7096 56.9958 42.1025 55.3252Z" fill="#442A19"/>
<path d="M70.3015 46.7568C70.3015 46.7568 71.36 82.3477 66.3251 89.9085C66.3251 89.9085 72.3919 93.3531 72.9079 47.3166L70.3015 46.7568Z" fill="#442A19"/>
<path d="M52.5637 23.7214C51.5763 25.9948 53.0797 30.3435 54.1115 32.4791C54.0284 31.4308 54.1989 30.3782 54.6097 29.4049C56.2643 32.0486 57.0738 38.7482 60.4363 39.6094C60.5164 38.2316 60.0538 36.8882 60.1427 35.4931C62.8114 37.4135 64.4838 41.6847 67.6239 43.2434C68.1043 42.3822 67.7396 40.8064 67.5706 39.8763C68.558 41.323 71.1288 44.5609 72.9079 44.7332C72.8367 43.4414 71.5558 42.0378 70.9331 40.8839C70.3816 39.8935 69.9101 38.4382 68.7981 38.0593C68.7981 38.3693 68.7092 38.7568 68.7448 39.0669C67.3571 38.576 66.7522 35.2778 65.1865 34.2014C63.354 32.9528 64.0835 35.1745 63.9589 36.6901C62.4556 34.5717 61.7351 31.5233 60.0271 29.5513C59.7439 30.349 59.3488 31.1053 58.8529 31.7988C57.4207 29.1465 56.7624 21.5082 51.7364 23.575" fill="#523421"/>
<path d="M43.1611 59.5275C42.6804 61.3964 42.6804 63.3508 43.1611 65.2197C43.2678 65.0905 43.4902 64.8752 43.5881 64.7546C44.4776 67.0108 43.9884 71.6954 42.5295 73.6502C42.6653 73.4114 42.8168 73.1813 42.9832 72.9613C43.0899 74.9247 40.6525 77.7406 39.0157 78.7223C39.0157 78.5243 38.9535 78.2573 38.9713 78.0679C37.3345 80.0829 36.8719 82.7524 35.6354 84.957C35.7691 84.7009 35.957 84.4749 36.1869 84.2939C36.2581 84.5178 36.4894 84.802 36.5339 84.9828C37.8771 83.0883 38.7934 80.4015 40.2433 78.7223C40.6525 79.8073 40.5369 81.0388 41.7734 79.971C42.5473 79.3165 42.4939 77.7062 43.4813 77.0689C43.7482 76.8967 43.7393 76.6211 44.0862 76.5006C44.4332 76.38 44.62 77.1378 44.7 77.0948C45.9988 76.4661 46.2834 74.3736 46.746 72.9785C47.1789 71.2611 47.3142 69.4859 47.1463 67.7256C46.9684 67.9753 46.4258 68.2767 46.2123 68.5867C45.3227 67.7256 45.6429 65.9172 45.3672 64.8321C45.1448 63.971 44.6377 62.9549 44.362 62.0507C44.1591 62.0593 43.9566 62.0268 43.7674 61.9553C43.5782 61.8838 43.4065 61.7749 43.2633 61.6355C43.1201 61.496 43.0086 61.3292 42.9358 61.1457C42.8631 60.9621 42.8307 60.7659 42.8408 60.5695" fill="#523421"/>
<path d="M71.8493 45.6373C71.8634 44.7328 72.2444 43.8699 72.9102 43.235C73.576 42.6002 74.473 42.2444 75.4076 42.2445V42.2445C76.3421 42.2444 77.2392 42.6002 77.9049 43.235C78.5707 43.8699 78.9518 44.7328 78.9658 45.6373V53.2843C78.9518 54.1888 78.5707 55.0517 77.9049 55.6866C77.2392 56.3214 76.3421 56.6772 75.4076 56.6771V56.6771C74.473 56.6772 73.576 56.3214 72.9102 55.6866C72.2444 55.0517 71.8634 54.1888 71.8493 53.2843V45.6373Z" fill="#47505C"/>
<g style="mix-blend-mode:multiply">
<path d="M76.1014 45.8182C76.7898 46.6851 77.2647 47.6927 77.4897 48.7642C77.7148 49.8357 77.6842 50.9429 77.4002 52.0012C77.0266 53.9215 75.5499 55.8591 73.4861 56.1432C74.0196 56.4599 74.6299 56.6348 75.2555 56.6503C75.8811 56.6657 76.4999 56.5211 77.0493 56.2312C77.5988 55.9412 78.0595 55.5161 78.3851 54.9987C78.7106 54.4813 78.8895 53.8899 78.9035 53.2843V45.6373C78.8622 44.8586 78.5491 44.1165 78.0155 43.5323C77.4819 42.9481 76.7594 42.5566 75.966 42.4215C75.1726 42.2865 74.3555 42.4161 73.648 42.7891C72.9406 43.1621 72.3849 43.7564 72.0717 44.4748C72.806 44.3444 73.5627 44.3995 74.2686 44.6348C74.9745 44.8701 75.6058 45.2777 76.1014 45.8182V45.8182Z" fill="#C7C6C6"/>
</g>
<g style="mix-blend-mode:soft-light" opacity="0.5">
<path d="M73.0858 45.6373C73.0858 45.5437 73.1242 45.4539 73.1926 45.3877C73.261 45.3215 73.3538 45.2843 73.4505 45.2843V45.2843C73.5473 45.2843 73.64 45.3215 73.7084 45.3877C73.7768 45.4539 73.8153 45.5437 73.8153 45.6373V54.2487C73.8153 54.3424 73.7768 54.4322 73.7084 54.4984C73.64 54.5646 73.5473 54.6018 73.4505 54.6018V54.6018C73.3538 54.6018 73.261 54.5646 73.1926 54.4984C73.1242 54.4322 73.0858 54.3424 73.0858 54.2487V45.6373Z" fill="white"/>
</g>
<path d="M78.4231 44.2509V54.6621C80.051 54.0335 81.2519 51.9409 81.2519 49.4953C81.2519 47.0496 80.0599 44.8882 78.4231 44.2509Z" fill="#D42C27"/>
<g style="mix-blend-mode:multiply">
<path d="M80.1133 51.45C78.8768 50.3306 78.5566 48.7547 78.432 46.8602V54.6621C79.0107 54.3894 79.5241 54.0027 79.9392 53.5266C80.3544 53.0506 80.6621 52.4958 80.8427 51.8978C80.5725 51.7946 80.325 51.6427 80.1133 51.45V51.45Z" fill="#DADADA"/>
</g>
<path d="M80.2023 52.294C80.2023 52.294 82.2305 70.1368 62.8292 69.6287" stroke="#2D353F" stroke-width="1.48311" stroke-linecap="round" stroke-linejoin="round"/>
<path d="M63.5142 69.6976C63.5118 70.1118 63.3402 70.5082 63.0368 70.8002C62.7335 71.0923 62.323 71.2562 61.8952 71.2562H59.7424C59.3146 71.2562 58.9041 71.0923 58.6008 70.8002C58.2974 70.5082 58.1258 70.1118 58.1234 69.6976V69.6976C58.1258 69.2834 58.2974 68.887 58.6008 68.5949C58.9041 68.3029 59.3146 68.1389 59.7424 68.1389H61.913C62.3408 68.1389 62.7513 68.3029 63.0546 68.5949C63.358 68.887 63.5296 69.2834 63.532 69.6976H63.5142Z" fill="#242A34"/>
<path d="M41.1507 45.6373C41.1367 44.7328 40.7556 43.8699 40.0898 43.235C39.424 42.6002 38.527 42.2444 37.5924 42.2445V42.2445C36.6579 42.2444 35.7609 42.6002 35.0951 43.235C34.4293 43.8699 34.0482 44.7328 34.0342 45.6373V53.2843C34.0482 54.1888 34.4293 55.0517 35.0951 55.6866C35.7609 56.3214 36.6579 56.6772 37.5924 56.6771V56.6771C38.527 56.6772 39.424 56.3214 40.0898 55.6866C40.7556 55.0517 41.1367 54.1888 41.1507 53.2843V45.6373Z" fill="#47505C"/>
<g style="mix-blend-mode:multiply">
<path d="M36.8986 45.8182C36.2102 46.6851 35.7353 47.6927 35.5103 48.7642C35.2852 49.8357 35.3158 50.9429 35.5998 52.0012C35.9734 53.9215 37.4501 55.8591 39.5139 56.1432C38.9804 56.4599 38.3701 56.6348 37.7445 56.6503C37.1189 56.6657 36.5001 56.5211 35.9507 56.2312C35.4012 55.9412 34.9405 55.5161 34.6149 54.9987C34.2894 54.4813 34.1106 53.8899 34.0965 53.2843V45.6373C34.1378 44.8586 34.4509 44.1165 34.9845 43.5323C35.5181 42.9481 36.2406 42.5566 37.034 42.4215C37.8274 42.2865 38.6446 42.4161 39.352 42.7891C40.0594 43.1621 40.6151 43.7564 40.9283 44.4748C40.194 44.3444 39.4373 44.3995 38.7314 44.6348C38.0255 44.8701 37.3942 45.2777 36.8986 45.8182Z" fill="#C7C6C6"/>
</g>
<g style="mix-blend-mode:soft-light" opacity="0.5">
<path d="M39.8964 45.6373C39.8964 45.5437 39.858 45.4539 39.7896 45.3877C39.7212 45.3215 39.6284 45.2843 39.5317 45.2843V45.2843C39.435 45.2843 39.3422 45.3215 39.2738 45.3877C39.2054 45.4539 39.167 45.5437 39.167 45.6373V54.2487C39.167 54.3424 39.2054 54.4322 39.2738 54.4984C39.3422 54.5646 39.435 54.6018 39.5317 54.6018V54.6018C39.6284 54.6018 39.7212 54.5646 39.7896 54.4984C39.858 54.4322 39.8964 54.3424 39.8964 54.2487V45.6373Z" fill="white"/>
</g>
<path d="M34.5679 44.2509V54.6621C32.9934 54.0335 31.837 51.9409 31.837 49.4953C31.837 47.0496 32.9934 44.8882 34.5679 44.2509Z" fill="#D42C27"/>
<g style="mix-blend-mode:multiply">
<path d="M32.949 51.45C34.141 50.3306 34.4434 48.7547 34.5679 46.8602V54.6621C34.0026 54.3831 33.5034 53.9933 33.1021 53.5174C32.7009 53.0415 32.4064 52.4899 32.2373 51.8978C32.5009 51.7922 32.7422 51.6404 32.949 51.45V51.45Z" fill="#DADADA"/>
</g>
<path d="M61.2013 47.0754C61.2013 47.0754 61.6016 44.2854 63.7455 43.8117C65.8893 43.3381 66.6365 46.6707 66.6365 46.6707C66.6365 46.6707 65.4267 44.3284 63.5587 44.8537C62.2243 45.2326 61.2013 47.0754 61.2013 47.0754Z" fill="#574331"/>
<path d="M51.7364 47.0754C51.7364 47.0754 51.3361 44.2854 49.1923 43.8117C47.0485 43.3381 46.3012 46.6707 46.3012 46.6707C46.3012 46.6707 47.511 44.3284 49.388 44.8537C50.7046 45.2326 51.7364 47.0754 51.7364 47.0754Z" fill="#574331"/>
<path d="M59.6357 51.0711C59.4667 50.5286 59.0842 50.4167 58.6127 50.21C57.2072 49.59 57.3851 47.9883 57.1716 46.7654C57.1716 46.7517 57.166 46.7386 57.156 46.7289C57.146 46.7192 57.1324 46.7138 57.1182 46.7138C57.1041 46.7138 57.0905 46.7192 57.0805 46.7289C57.0705 46.7386 57.0649 46.7517 57.0649 46.7654C56.8883 47.8667 57.1216 48.9928 57.7231 49.943C58.1234 50.4167 59.1731 50.52 59.0486 51.3295C58.9596 51.9753 57.394 52.4748 56.8869 52.759C56.8774 52.763 56.8693 52.7696 56.8636 52.778C56.8579 52.7864 56.8549 52.7963 56.8549 52.8063C56.8549 52.8164 56.8579 52.8262 56.8636 52.8346C56.8693 52.843 56.8774 52.8497 56.8869 52.8537C57.8833 52.7848 60.0894 52.5265 59.6357 51.0711Z" fill="#EAA977"/>
<path d="M51.5674 55.816H62.2421C62.3271 55.8163 62.4108 55.836 62.4865 55.8734C62.5623 55.9108 62.6278 55.9649 62.678 56.0313C62.73 56.0964 62.7652 56.1725 62.7807 56.2534C62.7961 56.3343 62.7914 56.4175 62.767 56.4963C62.2955 58.0205 60.7832 61.5598 56.9137 61.5598C53.0441 61.5598 51.5051 58.0119 51.0515 56.4877C51.0263 56.3964 51.0271 56.3002 51.0537 56.2092C51.0803 56.1183 51.1318 56.036 51.2027 55.971C51.301 55.8785 51.4305 55.8235 51.5674 55.816V55.816Z" fill="#574331"/>
<path d="M61.6283 58.8903C60.0955 58.656 58.5455 58.5436 56.9937 58.5544C55.3691 58.5459 53.7468 58.6756 52.1456 58.9419C52.6253 59.7486 53.3161 60.4187 54.1485 60.8846C54.9809 61.3505 55.9254 61.5958 56.887 61.5958C57.8485 61.5958 58.793 61.3505 59.6254 60.8846C60.4578 60.4187 61.1486 59.7486 61.6283 58.9419V58.8903Z" fill="#E44547"/>
<path d="M61.4593 56.9699H52.3769C52.3094 56.9829 52.2398 56.9829 52.1723 56.9699C52.074 56.9305 51.9902 56.8635 51.9316 56.7775C51.8729 56.6916 51.8421 56.5907 51.8432 56.4877V55.8591H61.993V56.4877C61.9956 56.6107 61.9513 56.7303 61.8685 56.8235C61.8141 56.8736 61.7498 56.9124 61.6795 56.9376C61.6091 56.9627 61.5342 56.9738 61.4593 56.9699V56.9699Z" fill="#D8D9D9"/>
<path d="M60.801 56.9699H53.0352C52.9647 56.9839 52.8921 56.9839 52.8217 56.9699C52.7248 56.9286 52.6422 56.8612 52.5839 56.7757C52.5255 56.6902 52.4938 56.5902 52.4925 56.4877V55.8591H61.3347V56.4877C61.3374 56.6107 61.293 56.7303 61.2102 56.8235C61.1565 56.8745 61.0923 56.9138 61.0218 56.9391C60.9512 56.9643 60.876 56.9748 60.801 56.9699V56.9699Z" fill="white"/>
<rect x="24" y="92" width="65" height="7" fill="#009eb1"/>
</svg>
